<?xml version="1.0" standalone="no"?>
<!DOCTYPE svg PUBLIC "-//W3C//DTD SVG 20010904//EN"
 "http://www.w3.org/TR/2001/REC-SVG-20010904/DTD/svg10.dtd">
<svg version="1.0" xmlns="http://www.w3.org/2000/svg"
 width="167.000000pt" height="167.000000pt" viewBox="0 0 167.000000 167.000000"
 preserveAspectRatio="xMidYMid meet">
<metadata>
Created by potrace 1.11, written by Peter Selinger 2001-2013
</metadata>
<g transform="translate(0.000000,167.000000) scale(0.100000,-0.100000)"
fill="#000000" stroke="none">
<path d="M408 1469 c3 -145 0 -204 -8 -215 -10 -11 -50 -14 -206 -14 l-194 0
0 -205 0 -205 200 0 c110 0 200 -3 200 -7 0 -5 91 -8 202 -7 l203 0 -187 -3
-188 -3 0 -195 0 -195 195 0 195 0 3 188 3 187 0 -203 c-1 -186 2 -219 19
-192 9 15 378 13 393 -2 9 -9 15 -9 24 0 17 17 379 17 396 0 9 -9 12 37 12
208 l0 219 -195 -3 c-125 -2 -202 1 -215 8 -19 10 -20 21 -20 205 0 121 4 195
10 197 6 2 -81 2 -193 0 -191 -3 -204 -2 -220 16 -16 18 -18 40 -15 221 l3
201 -210 0 -210 0 3 -201z"/>
<path d="M1270 1450 l0 -190 190 0 190 0 0 190 0 190 -190 0 -190 0 0 -190z"/>
<path d="M405 400 c3 -5 8 -10 11 -10 2 0 4 5 4 10 0 6 -5 10 -11 10 -5 0 -7
-4 -4 -10z"/>
</g>
</svg>
